<?xml version="1.0" encoding="UTF-8"?>
<svg id="Layer_1" data-name="Layer 1" xmlns="http://www.w3.org/2000/svg" viewBox="0 0 338.3 57.23">
  <defs>
    <style>
      .cls-1 {
        fill: #faf6df;
      }
    </style>
  </defs>
  <path class="cls-1" d="M144.76,30.81c-4.34.06-9.84,2.07-10.68,6.9-.95,5.48,3.66,9.88,8.9,9.91,3.35.02,6.71.04,10.06.06,4.16.02,10.01-1.07,13.31,1.91.36.33.72.68.92,1.13,1.65,3.7-8.24,5.06-10.04,5.31-5.93.82-12.07.81-18.01.03-2.94-.39-5.93-.96-8.66-2.13-4.52-1.93-7.49-5.3-12.33-2.65-10.43,5.69-28.08,5.8-34.72,2.52-1.97-.98-2.94-5.91-2.94-8.47l-.04-33.8c0-5.48,3.06-9.53,9.43-9.45,6.92.09,17.65-.93,23.41,1.54,7.29,3.13,9.9,4.29,16.31-.05,1.02-.69,2.22-1.07,3.45-1.09,7.63-.14,15.25-.27,22.88-.41,3.65-.07,6.54-.5,9.36,2.45.22.23.43.48.5.79.06.32-.05.64-.19.93-1.35,2.9-4.2,2.93-6.94,3-2.46.06-4.92.13-7.38.19-3.64.09-7.28.19-10.92.28-3.07.08-5.8,3.19-6.22,6.09-.46,3.14,2.96,7.43,6.17,7.57,3.47.15,6.95.3,10.42.45,2.37.1,4.74.2,7.11.31,2.14.09,3.78-.16,5.08,1.93.27.44.48.91.62,1.4.05.18.09.37.04.54-.06.19-.23.33-.39.46-1.81,1.44-3.33,2.18-5.63,2.17-1.69,0-3.39.05-5.08.07-2.59.03-5.19.07-7.79.1ZM108.76,49.38c13.51-11.34,11.08-36.44-.34-41.64-3.87-1.77-10.05-2.02-14.22-.49-1.97.72-3.42,2.41-3.93,4.45-2.92,11.63-2.89,23.79.27,35,.62,2.19,2.36,3.87,4.57,4.43,4.58,1.17,10.7.72,13.65-1.75Z"/>
  <path class="cls-1" d="M310.23,52.53c-10.12,7.36-26.38,5.78-34.12-2.61-10.28-11.13-10.13-30.37-.36-41.76,9.2-10.72,28.11-10.93,37.76-.33,10.82,11.89,10.34,34.78-3.29,44.69ZM303.86,10.38c-5.22-5.19-12.71-5.28-18.04-.38-6.87,6.37-8.67,16.87-6.68,25.88,1.63,7.72,7.72,16.12,16.32,15.47,6.44-.59,11.04-5.7,13.41-11.94,3.49-9.23,2.2-21.94-4.98-28.99l-.04-.04Z"/>
  <path class="cls-1" d="M230.56,15.52c-7.55,13.47-2.17,32.28,9.7,33.18,13.81,1.05,13.98-12.55,20.65-11.5,1.87.29,3.32,6.05,2.17,8.28-6.85,13.31-28.81,15.98-39.12,4.06-9.75-11.27-9.57-29.55-.41-40.98,10.38-12.94,31.39-10.36,39.57,3.1.89,1.46.06,6.26-1.18,7.31-5.51,4.64-7.96-9.35-17.1-10.44-5.5-.65-11.46,1.94-14.28,6.98Z"/>
  <path class="cls-1" d="M215.79,52.7c.43.75.63,1.6.37,2.42-.4,1.31-1.86,2.08-3.22,2.06s-2.65-.68-3.77-1.47-2.14-1.72-3.32-2.41c-4.26-2.48-8.98-.7-13.03,1.31-8.21,4.07-17.25,2.46-21.57-5.09-3.2-5.59-1.83-12.45,2.69-17.6,2.97-3.39,4.21-7.96,3.28-12.37-.79-3.76-1.2-7.52-.31-11,1.29-5.06,8.25-7.17,12.38-7.18,5.18,0,11.34,2.94,12.29,9.59,1.45,10.17-11.92,20.32-3.99,23.8,1.9.83,4.11-.84,5.29-2.21.77-.9,4.43-6.93,5.71-4.12.27.59.18,1.27.07,1.91-.55,3.2-1.53,6.35-1.64,9.6s.82,6.76,3.38,8.76c1.22.96,2.73,1.5,3.97,2.43.56.42,1.06.96,1.41,1.57ZM187.45,8.49c-4.75,1.2-6.99,8-3.17,11.44,3.79,3.29,8.96,2.75,10.84-2.31.85-2.13.9-4.56-.43-6.42-1.55-2.19-4.58-3.37-7.19-2.73h-.06ZM176.68,42.67c1.42,4.2,6.8,7.13,10.82,6.27,4.98-1.06,8.4-6.29,7.26-11.59-.96-4.11-5.83-7.4-9.98-6.96-3.89.47-7.22,3.72-8.23,7.43-.4,1.58-.4,3.29.13,4.85Z"/>
  <path class="cls-1" d="M57.5,42.4c-16.99-2.61-16.67,16.74-24,12.53-1.42-.82-2.24-4.1-1.62-5.8L47.65,5.44c1.71-4.73,12.92-5.43,14.79-.41,1.44,3.87,16.01,42.22,16,44.84,0,2.03-.78,5.02-2.99,5.59-.96.25-1.93.33-2.84-.14-1.83-.94-2.74-3.35-3.73-5.01-2.59-4.36-6.28-7.13-11.37-7.91ZM54.24,13.35c-7.62,2.17-8.47,12.22-4.81,18.13,1.58,2.89,4.94,4.9,8.1,3.23,1.79-.94,3.12-2.53,4.05-4.4,1.64-3.28,1.68-7.13.27-10.52s-3.81-7.11-7.61-6.45Z"/>
  <path class="cls-1" d="M29.59,24.27c2.02-.02,6.2,1.59,5.75,4.1-.98,5.44-9.32,2.11-19.69,2.94-3.12.25-5.58,2.78-5.81,5.9l-.93,12.9c-.13,1.78-.52,5.37-4.08,5.55C1.81,55.82,0,52.99,0,51.27L.1,8.6c0-3.47,5.86-6.6,8.75-6.59l24.59.11c1.53,0,4.67,1.08,5.08,2.37.98,3.11-2.39,4.87-4.11,4.92-3.59.1-7.19.21-10.78.31-4.12.12-10.14-.83-13.28,2.45-.8.84-1.4,1.87-1.69,3-.66,2.62.43,5.59,2.62,7.17,3.28,2.36,7.05,2.04,10.84,2,2.49-.02,4.97-.05,7.46-.07Z"/>
  <path class="cls-1" d="M329.16,43.81c2.34-1.23,7.11.53,8.5,2.68,1.49,2.31.3,7.31-2.57,8.92-2.19,1.23-7.32.07-8.8-2.26-1.55-2.45-.39-7.63,2.86-9.34Z"/>
</svg>