<?xml version="1.0" encoding="UTF-8"?>
<svg id="Layer_1" data-name="Layer 1" xmlns="http://www.w3.org/2000/svg" viewBox="0 0 362.94 362.94">
  <defs>
    <style>
      .cls-1 {
        fill: #faf6df;
      }
    </style>
  </defs>
  <g>
    <path class="cls-1" d="M225.4,161.88c8.68-.08,26.59,6.83,24.65,17.56-4.21,23.35-39.99,9.06-84.46,12.61-13.4,1.07-23.93,11.91-24.9,25.32l-3.99,55.34c-.55,7.62-2.24,23.05-17.5,23.82-12.95.65-20.74-11.5-20.72-18.86l.44-183.01c.04-14.9,25.15-28.32,37.54-28.27l105.46.49c6.56.03,20.04,4.62,21.79,10.15,4.21,13.34-10.24,20.87-17.62,21.08-15.41.44-30.83.89-46.24,1.33-17.68.51-43.51-3.54-56.97,10.52-3.44,3.59-6.01,8.02-7.23,12.86-2.83,11.24,1.83,23.99,11.24,30.76,14.06,10.11,30.25,8.74,46.51,8.59,10.67-.1,21.33-.2,32-.3Z"/>
    <path class="cls-1" d="M252.46,244.64c10.03-5.26,30.5,2.29,36.44,11.51,6.4,9.93,1.29,31.34-11,38.25-9.41,5.29-31.39.31-37.73-9.69-6.65-10.49-1.69-32.74,12.29-40.07Z"/>
  </g>
  <path class="cls-1" d="M181.47,362.94C81.41,362.94,0,281.53,0,181.47S81.41,0,181.47,0s181.47,81.41,181.47,181.47-81.41,181.47-181.47,181.47ZM181.47,25.25C95.33,25.25,25.25,95.33,25.25,181.47s70.08,156.22,156.22,156.22,156.22-70.08,156.22-156.22S267.61,25.25,181.47,25.25Z"/>
</svg>