<?xml version="1.0" encoding="UTF-8"?>
<svg id="Layer_1" data-name="Layer 1" xmlns="http://www.w3.org/2000/svg" viewBox="0 0 268.16 319.48">
  <defs>
    <style>
      .cls-1 {
        fill: #faf6df;
      }
    </style>
  </defs>
  <path class="cls-1" d="M176.17,132.55c12.05-.11,36.9,9.48,34.22,24.38-5.84,32.41-55.51,12.58-117.24,17.5-18.59,1.48-33.22,16.54-34.56,35.14l-5.54,76.81c-.76,10.58-3.11,31.99-24.29,33.06C10.79,320.35-.02,303.48,0,293.27L.61,39.23C.66,18.55,35.52-.08,52.72,0l146.38.68c9.1.04,27.82,6.41,30.24,14.09,5.84,18.52-14.22,28.97-24.45,29.26-21.4.62-42.79,1.23-64.19,1.85-24.54.71-60.39-4.91-79.08,14.6-4.77,4.98-8.35,11.14-10.03,17.85-3.92,15.61,2.54,33.3,15.6,42.7,19.51,14.04,41.98,12.14,64.55,11.93,14.81-.14,29.61-.27,44.42-.41Z"/>
  <path class="cls-1" d="M213.73,247.43c13.92-7.3,42.34,3.18,50.59,15.98,8.88,13.78,1.78,43.51-15.27,53.1-13.06,7.34-43.57.42-52.37-13.45-9.23-14.56-2.35-45.44,17.05-55.62Z"/>
</svg>